<svg xmlns="http://www.w3.org/2000/svg" xmlns:xlink="http://www.w3.org/1999/xlink" contentStyleType="text/css" height="736px" preserveAspectRatio="none" style="width:632px;height:736px;background:#FFFFFF;" version="1.1" viewBox="0 0 632 736" width="632px" zoomAndPan="magnify"><defs/><g><!--class names--><a href="" target="_top" title="None" xlink:actuate="onRequest" xlink:href="" xlink:show="new" xlink:title="None" xlink:type="simple"><g id="elem_names"><rect codeLine="4" fill="#F1F1F1" height="50.5801" id="names" rx="2.5" ry="2.5" style="stroke:#181818;stroke-width:0.5;" width="264.2598" x="69" y="535"/><text fill="#000000" font-family="sans-serif" font-size="14" lengthAdjust="spacing" textLength="44.4268" x="178.9165" y="553.3027">names</text><line style="stroke:#181818;stroke-width:0.5;" x1="70" x2="332.2598" y1="561.29" y2="561.29"/><text fill="#000000" font-family="sans-serif" font-size="14" lengthAdjust="spacing" textLength="252.2598" x="75" y="578.5928">primary : string_non_empty_trimmed</text></g></a><!--class name_common--><a href="" target="_top" title="None" xlink:actuate="onRequest" xlink:href="" xlink:show="new" xlink:title="None" xlink:type="simple"><g id="elem_name_common"><rect codeLine="7" fill="#F1F1F1" height="66.8701" id="name_common" rx="2.5" ry="2.5" style="stroke:#181818;stroke-width:0.5;" width="247.3408" x="77.5" y="663"/><text fill="#000000" font-family="sans-serif" font-size="14" lengthAdjust="spacing" textLength="103.4893" x="149.4258" y="681.3027">name_common</text><line style="stroke:#181818;stroke-width:0.5;" x1="78.5" x2="323.8408" y1="689.29" y2="689.29"/><text fill="#000000" font-family="sans-serif" font-size="14" lengthAdjust="spacing" textLength="192.377" x="83.5" y="706.5928">language(pk) : language_tag</text><text fill="#000000" font-family="sans-serif" font-size="14" lengthAdjust="spacing" textLength="235.3408" x="83.5" y="722.8828">value : string_non_empty_trimmed</text></g></a><!--class building--><a href="" target="_top" title="None" xlink:actuate="onRequest" xlink:href="" xlink:show="new" xlink:title="None" xlink:type="simple"><g id="elem_building"><rect codeLine="11" fill="#F1F1F1" height="99.4502" id="building" rx="2.5" ry="2.5" style="stroke:#181818;stroke-width:0.5;" width="195.6406" x="7" y="359"/><text fill="#000000" font-family="sans-serif" font-size="14" lengthAdjust="spacing" textLength="55.8701" x="76.8853" y="377.3027">building</text><line style="stroke:#181818;stroke-width:0.5;" x1="8" x2="201.6406" y1="385.29" y2="385.29"/><text fill="#000000" font-family="sans-serif" font-size="14" lengthAdjust="spacing" textLength="168.4854" x="13" y="402.5928">theme : theme_buildings</text><text fill="#000000" font-family="sans-serif" font-size="14" lengthAdjust="spacing" textLength="69.5352" x="13" y="418.8828">id(i) : uuid</text><text fill="#000000" font-family="sans-serif" font-size="14" lengthAdjust="spacing" textLength="95.1699" x="13" y="435.1729">type(i) : string</text><text fill="#000000" font-family="sans-serif" font-size="14" lengthAdjust="spacing" textLength="183.6406" x="13" y="451.4629">version(i) : integer_positive</text></g></a><!--class building_part--><a href="" target="_top" title="None" xlink:actuate="onRequest" xlink:href="" xlink:show="new" xlink:title="None" xlink:type="simple"><g id="elem_building_part"><rect codeLine="17" fill="#F1F1F1" height="99.4502" id="building_part" rx="2.5" ry="2.5" style="stroke:#181818;stroke-width:0.5;" width="195.6406" x="63" y="183"/><text fill="#000000" font-family="sans-serif" font-size="14" lengthAdjust="spacing" textLength="90.3779" x="115.6313" y="201.3027">building_part</text><line style="stroke:#181818;stroke-width:0.5;" x1="64" x2="257.6406" y1="209.29" y2="209.29"/><text fill="#000000" font-family="sans-serif" font-size="14" lengthAdjust="spacing" textLength="168.4854" x="69" y="226.5928">theme : theme_buildings</text><text fill="#000000" font-family="sans-serif" font-size="14" lengthAdjust="spacing" textLength="69.5352" x="69" y="242.8828">id(i) : uuid</text><text fill="#000000" font-family="sans-serif" font-size="14" lengthAdjust="spacing" textLength="95.1699" x="69" y="259.1729">type(i) : string</text><text fill="#000000" font-family="sans-serif" font-size="14" lengthAdjust="spacing" textLength="183.6406" x="69" y="275.4629">version(i) : integer_positive</text></g></a><!--class feature--><a href="" target="_top" title="None" xlink:actuate="onRequest" xlink:href="" xlink:show="new" xlink:title="None" xlink:type="simple"><g id="elem_feature"><rect codeLine="26" fill="#F1F1F1" height="99.4502" id="feature" rx="2.5" ry="2.5" style="stroke:#181818;stroke-width:0.5;" width="182.4883" x="70" y="7"/><text fill="#000000" font-family="sans-serif" font-size="14" font-style="italic" lengthAdjust="spacing" textLength="48.1318" x="137.1782" y="25.3027">feature</text><line style="stroke:#181818;stroke-width:0.5;" x1="71" x2="251.4883" y1="33.29" y2="33.29"/><text fill="#000000" font-family="sans-serif" font-size="14" lengthAdjust="spacing" textLength="56.3828" x="76" y="50.5928">id : uuid</text><text fill="#000000" font-family="sans-serif" font-size="14" lengthAdjust="spacing" textLength="82.0176" x="76" y="66.8828">type : string</text><text fill="#000000" font-family="sans-serif" font-size="14" lengthAdjust="spacing" textLength="170.4883" x="76" y="83.1729">version : integer_positive</text><text fill="#000000" font-family="sans-serif" font-size="14" lengthAdjust="spacing" textLength="98.4785" x="76" y="99.4629">theme : theme</text></g></a><!--class geometry--><a href="" target="_top" title="None" xlink:actuate="onRequest" xlink:href="" xlink:show="new" xlink:title="None" xlink:type="simple"><g id="elem_geometry"><rect codeLine="32" fill="#F1F1F1" height="26.29" id="geometry" rx="2.5" ry="2.5" style="stroke:#181818;stroke-width:0.5;" width="70.2783" x="370" y="219.5"/><text fill="#000000" font-family="sans-serif" font-size="14" lengthAdjust="spacing" textLength="64.2783" x="373" y="237.8027">geometry</text></g></a><!--class polygon--><a href="" target="_top" title="None" xlink:actuate="onRequest" xlink:href="" xlink:show="new" xlink:title="None" xlink:type="simple"><g id="elem_polygon"><rect codeLine="35" fill="#F1F1F1" height="26.29" id="polygon" rx="2.5" ry="2.5" style="stroke:#181818;stroke-width:0.5;" width="60.79" x="313.5" y="395.5"/><text fill="#000000" font-family="sans-serif" font-size="14" lengthAdjust="spacing" textLength="54.79" x="316.5" y="413.8027">polygon</text></g></a><!--class point--><a href="" target="_top" title="None" xlink:actuate="onRequest" xlink:href="" xlink:show="new" xlink:title="None" xlink:type="simple"><g id="elem_point"><rect codeLine="38" fill="#F1F1F1" height="26.29" id="point" rx="2.5" ry="2.5" style="stroke:#181818;stroke-width:0.5;" width="41.3828" x="384.5" y="395.5"/><text fill="#000000" font-family="sans-serif" font-size="14" lengthAdjust="spacing" textLength="35.3828" x="387.5" y="413.8027">point</text></g></a><!--class multi_polygon--><a href="" target="_top" title="None" xlink:actuate="onRequest" xlink:href="" xlink:show="new" xlink:title="None" xlink:type="simple"><g id="elem_multi_polygon"><rect codeLine="41" fill="#F1F1F1" height="26.29" id="multi_polygon" rx="2.5" ry="2.5" style="stroke:#181818;stroke-width:0.5;" width="102.8789" x="435.5" y="395.5"/><text fill="#000000" font-family="sans-serif" font-size="14" lengthAdjust="spacing" textLength="96.8789" x="438.5" y="413.8027">multi_polygon</text></g></a><!--class line_string--><a href="" target="_top" title="None" xlink:actuate="onRequest" xlink:href="" xlink:show="new" xlink:title="None" xlink:type="simple"><g id="elem_line_string"><rect codeLine="44" fill="#F1F1F1" height="26.29" id="line_string" rx="2.5" ry="2.5" style="stroke:#181818;stroke-width:0.5;" width="77.1484" x="548.5" y="395.5"/><text fill="#000000" font-family="sans-serif" font-size="14" lengthAdjust="spacing" textLength="71.1484" x="551.5" y="413.8027">line_string</text></g></a><!--link names to name_common--><g id="link_names_name_common"><path codeLine="23" d="M201,586.08 C201,607.69 201,633.3 201,656.99 " fill="none" id="names-to-name_common" style="stroke:#181818;stroke-width:1.0;"/><polygon fill="#181818" points="201,662.99,205,653.99,201,657.99,197,653.99,201,662.99" style="stroke:#181818;stroke-width:1.0;"/><text fill="#000000" font-family="sans-serif" font-size="13" lengthAdjust="spacing" textLength="54.9707" x="202" y="629.3525">common</text><text fill="#000000" font-family="sans-serif" font-size="13" lengthAdjust="spacing" textLength="22.7119" x="176.8709" y="652.2939">0..*</text></g><!--link building to names--><g id="link_building_names"><path codeLine="24" d="M142.638,468.3077 C159.058,493.9677 168.7957,509.1764 182.0757,529.9264 " fill="none" id="building-names" style="stroke:#181818;stroke-width:1.0;"/><polygon fill="#181818" points="136.17,458.2,136.0348,465.4098,142.638,468.3077,142.7732,461.0979,136.17,458.2" style="stroke:#181818;stroke-width:1.0;"/><polygon fill="#181818" points="185.31,534.98,183.8276,525.2433,182.6147,530.7686,177.0894,529.5558,185.31,534.98" style="stroke:#181818;stroke-width:1.0;"/><text fill="#000000" font-family="sans-serif" font-size="13" lengthAdjust="spacing" textLength="41.2534" x="166" y="501.3525">names</text><text fill="#000000" font-family="sans-serif" font-size="13" lengthAdjust="spacing" textLength="24.667" x="154.6102" y="524.3505">0..1</text></g><!--link building_part to names--><g id="link_building_part_names"><path codeLine="25" d="M230.5437,291.1243 C238.4037,300.1843 237.42,301.18 242,312 C274.52,388.81 238.029,483.7825 216.269,529.4925 " fill="none" id="building_part-names" style="stroke:#181818;stroke-width:1.0;"/><polygon fill="#181818" points="222.68,282.06,223.5904,289.2134,230.5437,291.1243,229.6333,283.9709,222.68,282.06" style="stroke:#181818;stroke-width:1.0;"/><polygon fill="#181818" points="213.69,534.91,221.1701,528.5031,215.8391,530.3954,213.9468,525.0645,213.69,534.91" style="stroke:#181818;stroke-width:1.0;"/><text fill="#000000" font-family="sans-serif" font-size="13" lengthAdjust="spacing" textLength="41.2534" x="256" y="413.3525">names</text><text fill="#000000" font-family="sans-serif" font-size="13" lengthAdjust="spacing" textLength="24.667" x="189.9078" y="524.2634">0..1</text></g><!--link feature to geometry--><g id="link_feature_geometry"><path codeLine="47" d="M239.06,113.1675 C293.2,151.7775 350.3152,192.496 382.8152,215.676 " fill="none" id="feature-geometry" style="stroke:#181818;stroke-width:1.0;"/><polygon fill="#181818" points="229.29,106.2,231.8525,112.9404,239.06,113.1675,236.4975,106.4271,229.29,106.2" style="stroke:#181818;stroke-width:1.0;"/><polygon fill="#181818" points="387.7,219.16,382.6954,210.6774,383.6293,216.2567,378.0501,217.1905,387.7,219.16" style="stroke:#181818;stroke-width:1.0;"/><text fill="#000000" font-family="sans-serif" font-size="13" lengthAdjust="spacing" textLength="59.687" x="292" y="149.3525">geometry</text><text fill="#000000" font-family="sans-serif" font-size="13" lengthAdjust="spacing" textLength="8.2202" x="371.8349" y="208.7976">1</text></g><!--reverse link geometry to polygon--><g id="link_geometry_polygon"><path codeLine="48" d="M394.7563,262.7269 C383.5863,294.5969 359.62,362.93 348.37,395.05 " fill="none" id="geometry-backto-polygon" style="stroke:#181818;stroke-width:1.0;"/><polygon fill="none" points="400.71,245.74,389.094,260.7423,400.4186,264.7114,400.71,245.74" style="stroke:#181818;stroke-width:1.0;"/></g><!--reverse link geometry to point--><g id="link_geometry_point"><path codeLine="49" d="M405,263.74 C405,295.61 405,362.93 405,395.05 " fill="none" id="geometry-backto-point" style="stroke:#181818;stroke-width:1.0;"/><polygon fill="none" points="405,245.74,399,263.74,411,263.74,405,245.74" style="stroke:#181818;stroke-width:1.0;"/></g><!--reverse link geometry to multi_polygon--><g id="link_geometry_multi_polygon"><path codeLine="50" d="M418.4437,262.0223 C433.4637,293.8923 466,362.93 481.13,395.05 " fill="none" id="geometry-backto-multi_polygon" style="stroke:#181818;stroke-width:1.0;"/><polygon fill="none" points="410.77,245.74,413.0163,264.5802,423.8711,259.4644,410.77,245.74" style="stroke:#181818;stroke-width:1.0;"/></g><!--reverse link geometry to line_string--><g id="link_geometry_line_string"><path codeLine="51" d="M432.7669,257.2772 C458.2069,279.1572 499.52,315.47 543,359 C554.89,370.9 567.74,385.25 576.46,395.24 " fill="none" id="geometry-backto-line_string" style="stroke:#181818;stroke-width:1.0;"/><polygon fill="none" points="419.12,245.54,428.8545,261.8262,436.6793,252.7282,419.12,245.54" style="stroke:#181818;stroke-width:1.0;"/></g><!--reverse link feature to building_part--><g id="link_feature_building_part"><path codeLine="52" d="M161,124.43 C161,148.35 161,159.06 161,182.94 " fill="none" id="feature-backto-building_part" style="stroke:#181818;stroke-width:1.0;"/><polygon fill="none" points="161,106.43,155,124.43,167,124.43,161,106.43" style="stroke:#181818;stroke-width:1.0;"/></g><!--reverse link feature to building--><g id="link_feature_building"><path codeLine="53" d="M95.652,119.3734 C76.032,140.7934 68.26,154.34 58,183 C36.11,244.19 45.88,267.21 66,329 C69.2,338.84 73.46,348.99 77.98,358.59 " fill="none" id="feature-backto-building" style="stroke:#181818;stroke-width:1.0;"/><polygon fill="none" points="107.81,106.1,91.2275,115.3207,100.0765,123.4261,107.81,106.1" style="stroke:#181818;stroke-width:1.0;"/></g><!--link building_part to building--><g id="link_building_part_building"><path codeLine="54" d="M91.7,282.09 C83.32,291.04 75.98,301.05 71,312 C64.23,326.9 64.6241,338.0122 70.7241,353.2022 " fill="none" id="building_part-to-building" style="stroke:#181818;stroke-width:1.0;"/><polygon fill="#181818" points="72.96,358.77,73.318,348.9277,71.0967,354.1301,65.8942,351.9089,72.96,358.77" style="stroke:#181818;stroke-width:1.0;"/><text fill="#000000" font-family="sans-serif" font-size="13" lengthAdjust="spacing" textLength="70.3193" x="72" y="325.3525">building_id</text><text fill="#000000" font-family="sans-serif" font-size="13" lengthAdjust="spacing" textLength="8.2202" x="59.9326" y="348.0518">1</text></g><!--link building_part to building--><g id="link_building_part_building"><path codeLine="55" d="M153,282.15 C149.92,297.34 145.93,314.04 141,329 C137.76,338.83 136.0821,343.5706 131.8021,353.2706 " fill="none" id="building_part-to-building-1" style="stroke:#181818;stroke-width:1.0;"/><polygon fill="#181818" points="129.38,358.76,136.6728,352.1407,131.3984,354.1855,129.3536,348.9112,129.38,358.76" style="stroke:#181818;stroke-width:1.0;"/><text fill="#000000" font-family="sans-serif" font-size="13" lengthAdjust="spacing" textLength="92.2441" x="147" y="325.3525">"building_id"(i)</text><text fill="#000000" font-family="sans-serif" font-size="13" lengthAdjust="spacing" textLength="24.667" x="107.1125" y="348.3992">0..1</text></g><!--SRC=[pLDDZu8m4BtpAoQSN1EDNZdiJzW_O7QR2YDEx5VQOaAC_tsBY5GGtEDoeTCtVVFwPkfEf0otN8BI1JeqiDqaHoeGShAvm7QDqlWQ9CezMfVaWZi7gU8INGgxtULBAxn-VyCbWV1T3eIYk8An9Bcj8GFdBQcIAQtOZOc5M4ei099hpCPoBQLMCvo2gxBY9IxCwICGTo7pl0naSUQPYmh_M7jVaIX2ranXVqJPqDt-h3lW1aMfM52Zgwge642-DjY2hQAXt60iQTLcaF9OecL6E_9qnbTQMUYQ_zU2km5PhJuXtQpNotJGvGpI-pA9Mh3iyhVfOyQoRfKCxp-VpVT1Eyyzf0Valh8uOrWmODA7DoQyTc2o6t4xIzGIlQq7mle4eqLTZjv4Z8VIawYiX2VsZaEGGjPUS9pJMzTwtHZTgywY88dsVrQhNliBe14zsdvMEu9ZcP6i6_Oy5bFeU7uUL-e7C8lOg9WuSf-uoLFXNVm2]--></g></svg>