<svg xmlns="http://www.w3.org/2000/svg" xmlns:xlink="http://www.w3.org/1999/xlink" contentStyleType="text/css" height="896px" preserveAspectRatio="none" style="width:742px;height:896px;background:#FFFFFF;" version="1.1" viewBox="0 0 742 896" width="742px" zoomAndPan="magnify"><defs/><g><!--class name_rule--><a href="" target="_top" title="None" xlink:actuate="onRequest" xlink:href="" xlink:show="new" xlink:title="None" xlink:type="simple"><g id="elem_name_rule"><rect codeLine="4" fill="#F1F1F1" height="99.4502" id="name_rule" rx="2.5" ry="2.5" style="stroke:#181818;stroke-width:0.5;" width="315.6797" x="7" y="663"/><text fill="#000000" font-family="sans-serif" font-size="14" lengthAdjust="spacing" textLength="70.5537" x="129.563" y="681.3027">name_rule</text><line style="stroke:#181818;stroke-width:0.5;" x1="8" x2="321.6797" y1="689.29" y2="689.29"/><text fill="#000000" font-family="sans-serif" font-size="14" lengthAdjust="spacing" textLength="150.3975" x="13" y="706.5928">variant : name_variant</text><text fill="#000000" font-family="sans-serif" font-size="14" lengthAdjust="spacing" textLength="235.3408" x="13" y="722.8828">value : string_non_empty_trimmed</text><text fill="#000000" font-family="sans-serif" font-size="14" lengthAdjust="spacing" textLength="303.6797" x="13" y="739.1729">between : linearly_referenced_position  [0..*]</text><text fill="#000000" font-family="sans-serif" font-size="14" lengthAdjust="spacing" textLength="68.8789" x="13" y="755.4629">side : side</text></g></a><!--class scope_side--><a href="" target="_top" title="Establishes a scope that applies only to the left or right-hand side, relative to an orientation, e.g. a name that applies only to the left side of a road segment when facing in the direction of the segment orientation." xlink:actuate="onRequest" xlink:href="" xlink:show="new" xlink:title="Establishes a scope that applies only to the left or right-hand side, relative to an orientation, e.g. a name that applies only to the left side of a road segment when facing in the direction of the segment orientation." xlink:type="simple"><g id="elem_scope_side"><rect codeLine="10" fill="#F1F1F1" height="50.5801" id="scope_side" rx="2.5" ry="2.5" style="stroke:#181818;stroke-width:0.5;" width="80.8789" x="20.5" y="839"/><text fill="#000000" font-family="sans-serif" font-size="14" lengthAdjust="spacing" textLength="74.3135" x="23.7827" y="857.3027">scope_side</text><line style="stroke:#181818;stroke-width:0.5;" x1="21.5" x2="100.3789" y1="865.29" y2="865.29"/><text fill="#000000" font-family="sans-serif" font-size="14" lengthAdjust="spacing" textLength="68.8789" x="26.5" y="882.5928">side : side</text></g></a><!--class scope_geometric_range--><a href="" target="_top" title="Establishes a scope that applies only between two positions along a linear path. Enables range-based linear referencing." xlink:actuate="onRequest" xlink:href="" xlink:show="new" xlink:title="Establishes a scope that applies only between two positions along a linear path. Enables range-based linear referencing." xlink:type="simple"><g id="elem_scope_geometric_range"><rect codeLine="14" fill="#F1F1F1" height="50.5801" id="scope_geometric_range" rx="2.5" ry="2.5" style="stroke:#181818;stroke-width:0.5;" width="315.6797" x="111" y="839"/><text fill="#000000" font-family="sans-serif" font-size="14" lengthAdjust="spacing" textLength="160.3779" x="188.6509" y="857.3027">scope_geometric_range</text><line style="stroke:#181818;stroke-width:0.5;" x1="112" x2="425.6797" y1="865.29" y2="865.29"/><text fill="#000000" font-family="sans-serif" font-size="14" lengthAdjust="spacing" textLength="303.6797" x="117" y="882.5928">between : linearly_referenced_position  [0..*]</text></g></a><!--class names--><a href="" target="_top" title="None" xlink:actuate="onRequest" xlink:href="" xlink:show="new" xlink:title="None" xlink:type="simple"><g id="elem_names"><rect codeLine="18" fill="#F1F1F1" height="50.5801" id="names" rx="2.5" ry="2.5" style="stroke:#181818;stroke-width:0.5;" width="264.2598" x="179" y="535"/><text fill="#000000" font-family="sans-serif" font-size="14" lengthAdjust="spacing" textLength="44.4268" x="288.9165" y="553.3027">names</text><line style="stroke:#181818;stroke-width:0.5;" x1="180" x2="442.2598" y1="561.29" y2="561.29"/><text fill="#000000" font-family="sans-serif" font-size="14" lengthAdjust="spacing" textLength="252.2598" x="185" y="578.5928">primary : string_non_empty_trimmed</text></g></a><!--class name_common--><a href="" target="_top" title="None" xlink:actuate="onRequest" xlink:href="" xlink:show="new" xlink:title="None" xlink:type="simple"><g id="elem_name_common"><rect codeLine="21" fill="#F1F1F1" height="66.8701" id="name_common" rx="2.5" ry="2.5" style="stroke:#181818;stroke-width:0.5;" width="247.3408" x="333.5" y="679"/><text fill="#000000" font-family="sans-serif" font-size="14" lengthAdjust="spacing" textLength="103.4893" x="405.4258" y="697.3027">name_common</text><line style="stroke:#181818;stroke-width:0.5;" x1="334.5" x2="579.8408" y1="705.29" y2="705.29"/><text fill="#000000" font-family="sans-serif" font-size="14" lengthAdjust="spacing" textLength="192.377" x="339.5" y="722.5928">language(pk) : language_tag</text><text fill="#000000" font-family="sans-serif" font-size="14" lengthAdjust="spacing" textLength="235.3408" x="339.5" y="738.8828">value : string_non_empty_trimmed</text></g></a><!--class building--><a href="" target="_top" title="None" xlink:actuate="onRequest" xlink:href="" xlink:show="new" xlink:title="None" xlink:type="simple"><g id="elem_building"><rect codeLine="25" fill="#F1F1F1" height="99.4502" id="building" rx="2.5" ry="2.5" style="stroke:#181818;stroke-width:0.5;" width="195.6406" x="117" y="359"/><text fill="#000000" font-family="sans-serif" font-size="14" lengthAdjust="spacing" textLength="55.8701" x="186.8853" y="377.3027">building</text><line style="stroke:#181818;stroke-width:0.5;" x1="118" x2="311.6406" y1="385.29" y2="385.29"/><text fill="#000000" font-family="sans-serif" font-size="14" lengthAdjust="spacing" textLength="168.4854" x="123" y="402.5928">theme : theme_buildings</text><text fill="#000000" font-family="sans-serif" font-size="14" lengthAdjust="spacing" textLength="69.5352" x="123" y="418.8828">id(i) : uuid</text><text fill="#000000" font-family="sans-serif" font-size="14" lengthAdjust="spacing" textLength="95.1699" x="123" y="435.1729">type(i) : string</text><text fill="#000000" font-family="sans-serif" font-size="14" lengthAdjust="spacing" textLength="183.6406" x="123" y="451.4629">version(i) : integer_positive</text></g></a><!--class building_part--><a href="" target="_top" title="None" xlink:actuate="onRequest" xlink:href="" xlink:show="new" xlink:title="None" xlink:type="simple"><g id="elem_building_part"><rect codeLine="31" fill="#F1F1F1" height="99.4502" id="building_part" rx="2.5" ry="2.5" style="stroke:#181818;stroke-width:0.5;" width="195.6406" x="173" y="183"/><text fill="#000000" font-family="sans-serif" font-size="14" lengthAdjust="spacing" textLength="90.3779" x="225.6313" y="201.3027">building_part</text><line style="stroke:#181818;stroke-width:0.5;" x1="174" x2="367.6406" y1="209.29" y2="209.29"/><text fill="#000000" font-family="sans-serif" font-size="14" lengthAdjust="spacing" textLength="168.4854" x="179" y="226.5928">theme : theme_buildings</text><text fill="#000000" font-family="sans-serif" font-size="14" lengthAdjust="spacing" textLength="69.5352" x="179" y="242.8828">id(i) : uuid</text><text fill="#000000" font-family="sans-serif" font-size="14" lengthAdjust="spacing" textLength="95.1699" x="179" y="259.1729">type(i) : string</text><text fill="#000000" font-family="sans-serif" font-size="14" lengthAdjust="spacing" textLength="183.6406" x="179" y="275.4629">version(i) : integer_positive</text></g></a><!--class feature--><a href="" target="_top" title="None" xlink:actuate="onRequest" xlink:href="" xlink:show="new" xlink:title="None" xlink:type="simple"><g id="elem_feature"><rect codeLine="41" fill="#F1F1F1" height="99.4502" id="feature" rx="2.5" ry="2.5" style="stroke:#181818;stroke-width:0.5;" width="182.4883" x="180" y="7"/><text fill="#000000" font-family="sans-serif" font-size="14" font-style="italic" lengthAdjust="spacing" textLength="48.1318" x="247.1782" y="25.3027">feature</text><line style="stroke:#181818;stroke-width:0.5;" x1="181" x2="361.4883" y1="33.29" y2="33.29"/><text fill="#000000" font-family="sans-serif" font-size="14" lengthAdjust="spacing" textLength="56.3828" x="186" y="50.5928">id : uuid</text><text fill="#000000" font-family="sans-serif" font-size="14" lengthAdjust="spacing" textLength="82.0176" x="186" y="66.8828">type : string</text><text fill="#000000" font-family="sans-serif" font-size="14" lengthAdjust="spacing" textLength="170.4883" x="186" y="83.1729">version : integer_positive</text><text fill="#000000" font-family="sans-serif" font-size="14" lengthAdjust="spacing" textLength="98.4785" x="186" y="99.4629">theme : theme</text></g></a><!--class geometry--><a href="" target="_top" title="None" xlink:actuate="onRequest" xlink:href="" xlink:show="new" xlink:title="None" xlink:type="simple"><g id="elem_geometry"><rect codeLine="47" fill="#F1F1F1" height="26.29" id="geometry" rx="2.5" ry="2.5" style="stroke:#181818;stroke-width:0.5;" width="70.2783" x="480" y="219.5"/><text fill="#000000" font-family="sans-serif" font-size="14" lengthAdjust="spacing" textLength="64.2783" x="483" y="237.8027">geometry</text></g></a><!--class polygon--><a href="" target="_top" title="None" xlink:actuate="onRequest" xlink:href="" xlink:show="new" xlink:title="None" xlink:type="simple"><g id="elem_polygon"><rect codeLine="50" fill="#F1F1F1" height="26.29" id="polygon" rx="2.5" ry="2.5" style="stroke:#181818;stroke-width:0.5;" width="60.79" x="423.5" y="395.5"/><text fill="#000000" font-family="sans-serif" font-size="14" lengthAdjust="spacing" textLength="54.79" x="426.5" y="413.8027">polygon</text></g></a><!--class point--><a href="" target="_top" title="None" xlink:actuate="onRequest" xlink:href="" xlink:show="new" xlink:title="None" xlink:type="simple"><g id="elem_point"><rect codeLine="53" fill="#F1F1F1" height="26.29" id="point" rx="2.5" ry="2.5" style="stroke:#181818;stroke-width:0.5;" width="41.3828" x="494.5" y="395.5"/><text fill="#000000" font-family="sans-serif" font-size="14" lengthAdjust="spacing" textLength="35.3828" x="497.5" y="413.8027">point</text></g></a><!--class multi_polygon--><a href="" target="_top" title="None" xlink:actuate="onRequest" xlink:href="" xlink:show="new" xlink:title="None" xlink:type="simple"><g id="elem_multi_polygon"><rect codeLine="56" fill="#F1F1F1" height="26.29" id="multi_polygon" rx="2.5" ry="2.5" style="stroke:#181818;stroke-width:0.5;" width="102.8789" x="545.5" y="395.5"/><text fill="#000000" font-family="sans-serif" font-size="14" lengthAdjust="spacing" textLength="96.8789" x="548.5" y="413.8027">multi_polygon</text></g></a><!--class line_string--><a href="" target="_top" title="None" xlink:actuate="onRequest" xlink:href="" xlink:show="new" xlink:title="None" xlink:type="simple"><g id="elem_line_string"><rect codeLine="59" fill="#F1F1F1" height="26.29" id="line_string" rx="2.5" ry="2.5" style="stroke:#181818;stroke-width:0.5;" width="77.1484" x="658.5" y="395.5"/><text fill="#000000" font-family="sans-serif" font-size="14" lengthAdjust="spacing" textLength="71.1484" x="661.5" y="413.8027">line_string</text></g></a><!--link name_rule to scope_side--><g id="link_name_rule_scope_side"><path codeLine="13" d="M131.23,762.2 C113.44,787.86 92.39,818.23 78,838.98 " fill="none" id="name_rule-scope_side" style="stroke:#181818;stroke-width:1.0;"/><text fill="#000000" font-family="sans-serif" font-size="13" lengthAdjust="spacing" textLength="28.5645" x="111" y="805.3525">uses</text></g><!--link name_rule to scope_geometric_range--><g id="link_name_rule_scope_geometric_range"><path codeLine="17" d="M198.77,762.2 C216.56,787.86 237.61,818.23 252,838.98 " fill="none" id="name_rule-scope_geometric_range" style="stroke:#181818;stroke-width:1.0;"/><text fill="#000000" font-family="sans-serif" font-size="13" lengthAdjust="spacing" textLength="28.5645" x="231" y="805.3525">uses</text></g><!--link names to name_rule--><g id="link_names_name_rule"><path codeLine="37" d="M278.5196,594.8686 C258.3496,615.5886 241.5242,632.8697 216.6642,658.4197 " fill="none" id="names-name_rule" style="stroke:#181818;stroke-width:1.0;"/><polygon fill="#181818" points="286.89,586.27,279.8386,587.7792,278.5196,594.8686,285.571,593.3594,286.89,586.27" style="stroke:#181818;stroke-width:1.0;"/><polygon fill="#181818" points="212.48,662.72,221.6231,659.059,215.9668,659.1364,215.8894,653.4801,212.48,662.72" style="stroke:#181818;stroke-width:1.0;"/><text fill="#000000" font-family="sans-serif" font-size="13" lengthAdjust="spacing" textLength="31.0146" x="257" y="629.3525">rules</text><text fill="#000000" font-family="sans-serif" font-size="13" lengthAdjust="spacing" textLength="22.7119" x="195.4514" y="652.3538">0..*</text></g><!--link names to name_common--><g id="link_names_name_common"><path codeLine="38" d="M335.11,586.27 C359.73,611.57 393.9049,646.6706 421.0049,674.5106 " fill="none" id="names-to-name_common" style="stroke:#181818;stroke-width:1.0;"/><polygon fill="#181818" points="425.19,678.81,421.7786,669.5708,421.7024,675.2272,416.0461,675.151,425.19,678.81" style="stroke:#181818;stroke-width:1.0;"/><text fill="#000000" font-family="sans-serif" font-size="13" lengthAdjust="spacing" textLength="54.9707" x="381" y="629.3525">common</text><text fill="#000000" font-family="sans-serif" font-size="13" lengthAdjust="spacing" textLength="22.7119" x="395.0647" y="668.3351">0..*</text></g><!--link building to names--><g id="link_building_names"><path codeLine="39" d="M252.638,468.3077 C269.058,493.9677 278.7957,509.1764 292.0757,529.9264 " fill="none" id="building-names" style="stroke:#181818;stroke-width:1.0;"/><polygon fill="#181818" points="246.17,458.2,246.0348,465.4098,252.638,468.3077,252.7732,461.0979,246.17,458.2" style="stroke:#181818;stroke-width:1.0;"/><polygon fill="#181818" points="295.31,534.98,293.8276,525.2433,292.6147,530.7686,287.0894,529.5558,295.31,534.98" style="stroke:#181818;stroke-width:1.0;"/><text fill="#000000" font-family="sans-serif" font-size="13" lengthAdjust="spacing" textLength="41.2534" x="276" y="501.3525">names</text><text fill="#000000" font-family="sans-serif" font-size="13" lengthAdjust="spacing" textLength="24.667" x="264.6102" y="524.3505">0..1</text></g><!--link building_part to names--><g id="link_building_part_names"><path codeLine="40" d="M340.5437,291.1243 C348.4037,300.1843 347.42,301.18 352,312 C384.52,388.81 348.029,483.7825 326.269,529.4925 " fill="none" id="building_part-names" style="stroke:#181818;stroke-width:1.0;"/><polygon fill="#181818" points="332.68,282.06,333.5904,289.2134,340.5437,291.1243,339.6333,283.9709,332.68,282.06" style="stroke:#181818;stroke-width:1.0;"/><polygon fill="#181818" points="323.69,534.91,331.1701,528.5031,325.8391,530.3954,323.9468,525.0645,323.69,534.91" style="stroke:#181818;stroke-width:1.0;"/><text fill="#000000" font-family="sans-serif" font-size="13" lengthAdjust="spacing" textLength="41.2534" x="366" y="413.3525">names</text><text fill="#000000" font-family="sans-serif" font-size="13" lengthAdjust="spacing" textLength="24.667" x="299.9078" y="524.2634">0..1</text></g><!--link feature to geometry--><g id="link_feature_geometry"><path codeLine="62" d="M349.06,113.1675 C403.2,151.7775 460.3152,192.496 492.8152,215.676 " fill="none" id="feature-geometry" style="stroke:#181818;stroke-width:1.0;"/><polygon fill="#181818" points="339.29,106.2,341.8525,112.9404,349.06,113.1675,346.4975,106.4271,339.29,106.2" style="stroke:#181818;stroke-width:1.0;"/><polygon fill="#181818" points="497.7,219.16,492.6954,210.6774,493.6293,216.2567,488.0501,217.1905,497.7,219.16" style="stroke:#181818;stroke-width:1.0;"/><text fill="#000000" font-family="sans-serif" font-size="13" lengthAdjust="spacing" textLength="59.687" x="402" y="149.3525">geometry</text><text fill="#000000" font-family="sans-serif" font-size="13" lengthAdjust="spacing" textLength="8.2202" x="481.8349" y="208.7976">1</text></g><!--reverse link geometry to polygon--><g id="link_geometry_polygon"><path codeLine="63" d="M504.7563,262.7269 C493.5863,294.5969 469.62,362.93 458.37,395.05 " fill="none" id="geometry-backto-polygon" style="stroke:#181818;stroke-width:1.0;"/><polygon fill="none" points="510.71,245.74,499.094,260.7423,510.4186,264.7114,510.71,245.74" style="stroke:#181818;stroke-width:1.0;"/></g><!--reverse link geometry to point--><g id="link_geometry_point"><path codeLine="64" d="M515,263.74 C515,295.61 515,362.93 515,395.05 " fill="none" id="geometry-backto-point" style="stroke:#181818;stroke-width:1.0;"/><polygon fill="none" points="515,245.74,509,263.74,521,263.74,515,245.74" style="stroke:#181818;stroke-width:1.0;"/></g><!--reverse link geometry to multi_polygon--><g id="link_geometry_multi_polygon"><path codeLine="65" d="M528.4437,262.0223 C543.4637,293.8923 576,362.93 591.13,395.05 " fill="none" id="geometry-backto-multi_polygon" style="stroke:#181818;stroke-width:1.0;"/><polygon fill="none" points="520.77,245.74,523.0163,264.5802,533.8711,259.4644,520.77,245.74" style="stroke:#181818;stroke-width:1.0;"/></g><!--reverse link geometry to line_string--><g id="link_geometry_line_string"><path codeLine="66" d="M542.7669,257.2772 C568.2069,279.1572 609.52,315.47 653,359 C664.89,370.9 677.74,385.25 686.46,395.24 " fill="none" id="geometry-backto-line_string" style="stroke:#181818;stroke-width:1.0;"/><polygon fill="none" points="529.12,245.54,538.8545,261.8262,546.6793,252.7282,529.12,245.54" style="stroke:#181818;stroke-width:1.0;"/></g><!--reverse link feature to building_part--><g id="link_feature_building_part"><path codeLine="67" d="M271,124.43 C271,148.35 271,159.06 271,182.94 " fill="none" id="feature-backto-building_part" style="stroke:#181818;stroke-width:1.0;"/><polygon fill="none" points="271,106.43,265,124.43,277,124.43,271,106.43" style="stroke:#181818;stroke-width:1.0;"/></g><!--reverse link feature to building--><g id="link_feature_building"><path codeLine="68" d="M205.652,119.3734 C186.032,140.7934 178.26,154.34 168,183 C146.11,244.19 155.88,267.21 176,329 C179.2,338.84 183.46,348.99 187.98,358.59 " fill="none" id="feature-backto-building" style="stroke:#181818;stroke-width:1.0;"/><polygon fill="none" points="217.81,106.1,201.2275,115.3207,210.0765,123.4261,217.81,106.1" style="stroke:#181818;stroke-width:1.0;"/></g><!--link building_part to building--><g id="link_building_part_building"><path codeLine="69" d="M201.7,282.09 C193.32,291.04 185.98,301.05 181,312 C174.23,326.9 174.6241,338.0122 180.7241,353.2022 " fill="none" id="building_part-to-building" style="stroke:#181818;stroke-width:1.0;"/><polygon fill="#181818" points="182.96,358.77,183.318,348.9277,181.0967,354.1301,175.8942,351.9089,182.96,358.77" style="stroke:#181818;stroke-width:1.0;"/><text fill="#000000" font-family="sans-serif" font-size="13" lengthAdjust="spacing" textLength="70.3193" x="182" y="325.3525">building_id</text><text fill="#000000" font-family="sans-serif" font-size="13" lengthAdjust="spacing" textLength="8.2202" x="169.9326" y="348.0518">1</text></g><!--link building_part to building--><g id="link_building_part_building"><path codeLine="70" d="M263,282.15 C259.92,297.34 255.93,314.04 251,329 C247.76,338.83 246.0821,343.5706 241.8021,353.2706 " fill="none" id="building_part-to-building-1" style="stroke:#181818;stroke-width:1.0;"/><polygon fill="#181818" points="239.38,358.76,246.6728,352.1407,241.3984,354.1855,239.3536,348.9112,239.38,358.76" style="stroke:#181818;stroke-width:1.0;"/><text fill="#000000" font-family="sans-serif" font-size="13" lengthAdjust="spacing" textLength="92.2441" x="257" y="325.3525">"building_id"(i)</text><text fill="#000000" font-family="sans-serif" font-size="13" lengthAdjust="spacing" textLength="24.667" x="217.1125" y="348.3992">0..1</text></g><!--SRC=[pLJ9RkCm3BtxAmYVEaKJjDSSvjRh_43G4HYRiOLgCIIvWH7atuVoadY9K_GslbWI7yd7Hqh-KveA7MemDYTF5Roz9gNC2JBfCaNTcdGL6j2a3-HyaYdq7bA3ceIh5QMmtv__M4ENZmyu9y3V-IX9vHVuGYVH1DX1YnwsC0EfcXZYWvEc4COQqIOKlDUQyXdyGE54PDX1IKFeL2CS7ScHoIWNbVKoI6i0zg_RxVF7nDN7OdRT3vBBK8dFR4KYdhQblFk01oLzIHuGMYE44WDWLId9XzQe1eBbGm95nm3MWPD56JObchmD_mAE50RvHH68XY6IJC18xGLeMsmvTDJacyWjLNjaiBF8eQdG70PE9Gjmn8pr0cbQU2uTPMtb38y70tQKURliq5oISLitcwasZAiz-Qbi1LbDtAbCE3J5JnGS6XbE5eQsCLvPBWhxvaA5eTp2k-5uxDUcs1pGyrJqWA7tBCMTyduuB6lrBugSIH6T_8DxKF4aesiU3_bbShCogxKr3s8gPb9ZGK_LvwzONxyL0OkVNx1hxaCjLSwe1ubvk7GCr_x5uE1dIMN-92ElkfRp6noQYZfZnsXEbnyPRag7a2PGGQvlrHVTuohu1Gl_DU5XG9utcz-GnbbB9m_e3jAuyEaLkG0Eyy3GVfcCcdKD_9PUft4th9AvKe_HUE0gCGkG7Wb3xHuzy2pLgcBVo7LVgzM-ZHlVNyTcHkm6gAngYiNj6TivzQfLrof8yLsC-A28hi0bvYPTftKK-iPwDzeae_E_ySKPyjunHDABuodRXNbCSqIhjKt7Oiswd9zhIRS1t8sYoNp5fP-uLI- -GVy0]--></g></svg>